<svg xmlns="http://www.w3.org/2000/svg" xmlns:xlink="http://www.w3.org/1999/xlink" width="150" zoomAndPan="magnify" viewBox="0 0 112.5 112.499997" height="150" preserveAspectRatio="xMidYMid meet" version="1.0"><defs><clipPath id="b7b07317f8"><path d="M 4.039062 4.039062 L 107.964844 4.039062 L 107.964844 107.964844 L 4.039062 107.964844 Z M 4.039062 4.039062 " clip-rule="nonzero"/></clipPath><clipPath id="17f55893d2"><path d="M 56 4.039062 C 27.304688 4.039062 4.039062 27.304688 4.039062 56 C 4.039062 84.699219 27.304688 107.964844 56 107.964844 C 84.699219 107.964844 107.964844 84.699219 107.964844 56 C 107.964844 27.304688 84.699219 4.039062 56 4.039062 Z M 56 4.039062 " clip-rule="nonzero"/></clipPath><clipPath id="ad10867417"><path d="M 0.0390625 0.0390625 L 103.964844 0.0390625 L 103.964844 103.964844 L 0.0390625 103.964844 Z M 0.0390625 0.0390625 " clip-rule="nonzero"/></clipPath><clipPath id="51636430b2"><path d="M 52 0.0390625 C 23.304688 0.0390625 0.0390625 23.304688 0.0390625 52 C 0.0390625 80.699219 23.304688 103.964844 52 103.964844 C 80.699219 103.964844 103.964844 80.699219 103.964844 52 C 103.964844 23.304688 80.699219 0.0390625 52 0.0390625 Z M 52 0.0390625 " clip-rule="nonzero"/></clipPath><clipPath id="c1cfc4bab8"><rect x="0" width="104" y="0" height="104"/></clipPath><clipPath id="bbd56860ba"><path d="M 22.875 22.695312 L 89.332031 22.695312 L 89.332031 89.148438 L 22.875 89.148438 Z M 22.875 22.695312 " clip-rule="nonzero"/></clipPath></defs><g clip-path="url(#b7b07317f8)"><g clip-path="url(#17f55893d2)"><g transform="matrix(1, 0, 0, 1, 4, 4)"><g clip-path="url(#c1cfc4bab8)"><g clip-path="url(#ad10867417)"><g clip-path="url(#51636430b2)"><path fill="#25d366" d="M 0.0390625 0.0390625 L 103.964844 0.0390625 L 103.964844 103.964844 L 0.0390625 103.964844 Z M 0.0390625 0.0390625 " fill-opacity="1" fill-rule="nonzero"/></g></g></g></g></g></g><g clip-path="url(#bbd56860ba)"><path fill="#ffffff" d="M 79.460938 32.398438 C 73.234375 26.167969 64.957031 22.726562 56.132812 22.726562 C 37.953125 22.726562 23.160156 37.519531 23.152344 55.703125 C 23.152344 61.515625 24.667969 67.191406 27.554688 72.191406 L 22.875 89.28125 L 40.359375 84.695312 C 45.179688 87.324219 50.601562 88.707031 56.121094 88.707031 L 56.132812 88.707031 C 74.308594 88.707031 89.109375 73.914062 89.109375 55.730469 C 89.109375 46.917969 85.6875 38.636719 79.457031 32.398438 Z M 56.132812 83.140625 L 56.125 83.140625 C 51.207031 83.140625 46.378906 81.816406 42.171875 79.320312 L 41.171875 78.722656 L 30.792969 81.445312 L 33.5625 71.328125 L 32.910156 70.292969 C 30.164062 65.929688 28.71875 60.882812 28.71875 55.703125 C 28.726562 40.59375 41.023438 28.296875 56.144531 28.296875 C 63.464844 28.296875 70.347656 31.152344 75.523438 36.335938 C 80.699219 41.515625 83.546875 48.402344 83.542969 55.726562 C 83.535156 70.84375 71.238281 83.140625 56.128906 83.140625 Z M 71.167969 62.613281 C 70.347656 62.199219 66.296875 60.207031 65.539062 59.933594 C 64.78125 59.65625 64.234375 59.523438 63.6875 60.34375 C 63.136719 61.171875 61.558594 63.027344 61.078125 63.578125 C 60.597656 64.125 60.117188 64.195312 59.289062 63.78125 C 58.464844 63.367188 55.8125 62.496094 52.660156 59.691406 C 50.214844 57.503906 48.558594 54.804688 48.078125 53.980469 C 47.597656 53.15625 48.027344 52.710938 48.4375 52.296875 C 48.808594 51.929688 49.261719 51.335938 49.675781 50.855469 C 50.089844 50.375 50.226562 50.027344 50.5 49.476562 C 50.777344 48.929688 50.636719 48.449219 50.429688 48.035156 C 50.222656 47.621094 48.578125 43.566406 47.890625 41.917969 C 47.222656 40.308594 46.539062 40.527344 46.035156 40.5 C 45.554688 40.476562 45.007812 40.472656 44.457031 40.472656 C 43.90625 40.472656 43.015625 40.675781 42.257812 41.5 C 41.503906 42.328125 39.375 44.320312 39.375 48.375 C 39.375 52.429688 42.328125 56.351562 42.742188 56.902344 C 43.15625 57.453125 48.554688 65.773438 56.820312 69.34375 C 58.785156 70.195312 60.324219 70.699219 61.519531 71.082031 C 63.496094 71.710938 65.292969 71.621094 66.710938 71.410156 C 68.292969 71.171875 71.582031 69.414062 72.273438 67.488281 C 72.960938 65.5625 72.960938 63.914062 72.753906 63.570312 C 72.542969 63.222656 71.996094 63.019531 71.171875 62.605469 Z M 71.167969 62.613281 " fill-opacity="1" fill-rule="evenodd"/></g></svg>