<?xml version="1.0" encoding="UTF-8" standalone="no"?>
<!DOCTYPE svg PUBLIC "-//W3C//DTD SVG 1.1//EN" "http://www.w3.org/Graphics/SVG/1.1/DTD/svg11.dtd">
<svg width="100%" height="100%" viewBox="0 0 134 134" version="1.1" xmlns="http://www.w3.org/2000/svg" xmlns:xlink="http://www.w3.org/1999/xlink" xml:space="preserve" xmlns:serif="http://www.serif.com/" style="fill-rule:evenodd;clip-rule:evenodd;stroke-linejoin:round;stroke-miterlimit:2;">
    <g id="Página-1" serif:id="Página 1" transform="matrix(4.166667,0,0,4.166667,0,0)">
        <rect x="0" y="0" width="32" height="32" style="fill:none;"/>
        <g id="Capa-1" serif:id="Capa 1">
            <rect x="0" y="0" width="32" height="32" style="fill:rgb(236,153,4);"/>
            <g transform="matrix(1,0,0,1,30.1895,11.9989)">
                <path d="M0,7.712C0,11.755 -3.225,15.062 -7.24,15.192C-6.66,14.097 -6.328,12.85 -6.328,11.528C-6.328,10.216 -6.653,8.979 -7.225,7.893C-4.547,7.803 -2.205,6.371 -0.852,4.249C-0.31,5.285 0,6.463 0,7.712M-14.19,19.017C-16.833,19.017 -19.156,17.638 -20.487,15.567C-17.812,15.475 -15.472,14.039 -14.12,11.918C-12.795,14.005 -10.51,15.43 -7.889,15.564C-9.222,17.637 -11.547,19.017 -14.19,19.017M-28.24,7.712C-28.24,6.509 -27.957,5.374 -27.45,4.365C-26.086,6.424 -23.781,7.805 -21.155,7.893C-21.722,8.979 -22.049,10.216 -22.049,11.528C-22.049,12.85 -21.72,14.096 -21.143,15.189C-25.092,14.986 -28.24,11.712 -28.24,7.712M-28.378,0.039C-28.378,-3.974 -25.205,-7.257 -21.235,-7.436C-21.801,-6.352 -22.122,-5.122 -22.122,-3.816C-22.122,-2.485 -21.789,-1.232 -21.205,-0.136C-23.853,0.017 -26.156,1.484 -27.464,3.622C-28.047,2.558 -28.378,1.335 -28.378,0.039M-14.263,-11.301C-11.602,-11.301 -9.261,-9.904 -7.934,-7.807C-10.581,-7.657 -12.881,-6.192 -14.19,-4.058C-15.523,-6.23 -17.882,-7.708 -20.587,-7.811C-19.26,-9.908 -16.922,-11.301 -14.263,-11.301M-6.328,3.856C-6.328,2.551 -6.652,1.319 -7.22,0.233C-4.602,0.326 -2.328,1.764 -1.062,3.876C-2.33,5.993 -4.615,7.434 -7.24,7.519C-6.66,6.424 -6.328,5.177 -6.328,3.856M-22.049,3.856C-22.049,5.177 -21.719,6.424 -21.141,7.519C-23.716,7.435 -25.963,6.046 -27.248,3.992C-26.019,1.855 -23.765,0.379 -21.164,0.238C-21.728,1.322 -22.049,2.553 -22.049,3.856M-12.529,3.85C-10.453,3.378 -8.685,2.084 -7.592,0.33C-7.025,1.381 -6.704,2.582 -6.704,3.856C-6.704,5.107 -7.014,6.284 -7.559,7.32C-8.668,5.577 -10.444,4.298 -12.529,3.85M-13.799,4.054C-11.31,4.182 -9.141,5.533 -7.876,7.515C-10.366,7.386 -12.535,6.036 -13.799,4.054M-12.897,7.712C-12.897,6.898 -13.021,6.111 -13.25,5.372C-11.901,6.833 -10.004,7.781 -7.889,7.888C-9.152,9.856 -11.309,11.198 -13.782,11.328C-13.22,10.247 -12.897,9.016 -12.897,7.712M-14.907,5.12C-15.19,5.935 -15.345,6.804 -15.345,7.712C-15.345,9.02 -15.025,10.249 -14.458,11.334C-16.992,11.244 -19.205,9.893 -20.491,7.888C-18.257,7.775 -16.266,6.723 -14.907,5.12M-14.581,4.054C-15.846,6.036 -18.015,7.386 -20.504,7.515C-19.237,5.533 -17.069,4.182 -14.581,4.054M-15.927,3.862C-17.977,4.33 -19.724,5.598 -20.821,7.32C-21.367,6.284 -21.674,5.107 -21.674,3.856C-21.674,2.633 -21.377,1.476 -20.854,0.457C-19.742,2.167 -17.982,3.42 -15.927,3.862M-14.463,3.666C-17.017,3.598 -19.255,2.245 -20.554,0.231C-18,0.3 -15.765,1.652 -14.463,3.666M-15.345,0.039C-15.345,0.854 -15.221,1.639 -14.99,2.379C-16.375,0.883 -18.335,-0.076 -20.515,-0.143C-19.229,-2.171 -16.993,-3.54 -14.439,-3.622C-15.018,-2.528 -15.345,-1.282 -15.345,0.039M-7.979,0.244C-9.23,2.173 -11.345,3.493 -13.769,3.652C-12.519,1.722 -10.406,0.403 -7.979,0.244M-13.477,2.632C-13.193,1.819 -13.035,0.949 -13.035,0.039C-13.035,-1.282 -13.365,-2.528 -13.946,-3.622C-11.389,-3.54 -9.151,-2.168 -7.864,-0.138C-10.108,-0.032 -12.11,1.023 -13.477,2.632M-13.271,7.712C-13.271,8.959 -13.58,10.135 -14.12,11.171C-14.664,10.135 -14.971,8.959 -14.971,7.712C-14.971,6.465 -14.664,5.288 -14.12,4.253C-13.58,5.288 -13.271,6.465 -13.271,7.712M-14.971,0.039C-14.971,-1.154 -14.69,-2.282 -14.19,-3.284C-13.691,-2.282 -13.409,-1.154 -13.409,0.039C-13.409,1.233 -13.691,2.362 -14.19,3.365C-14.69,2.362 -14.971,1.233 -14.971,0.039M-6.776,-3.816C-6.776,-2.591 -7.074,-1.438 -7.599,-0.413C-8.933,-2.468 -11.197,-3.861 -13.79,-3.993C-12.493,-6.008 -10.263,-7.362 -7.716,-7.44C-7.118,-6.364 -6.776,-5.13 -6.776,-3.816M-20.807,-7.442C-18.2,-7.413 -15.91,-6.045 -14.594,-3.993C-17.237,-3.86 -19.541,-2.408 -20.861,-0.289C-21.427,-1.34 -21.749,-2.542 -21.749,-3.816C-21.749,-5.132 -21.406,-6.369 -20.807,-7.442M-21.674,11.528C-21.674,10.278 -21.367,9.1 -20.821,8.065C-19.467,10.193 -17.119,11.627 -14.432,11.708C-15.754,13.792 -18.072,15.181 -20.71,15.196C-21.323,14.109 -21.674,12.86 -21.674,11.528M-7.669,15.192C-10.252,15.133 -12.516,13.755 -13.814,11.705C-11.184,11.58 -8.891,10.156 -7.559,8.065C-7.014,9.1 -6.704,10.278 -6.704,11.528C-6.704,12.86 -7.057,14.109 -7.669,15.192M0,0.039C0,1.288 -0.31,2.467 -0.852,3.503C-2.221,1.356 -4.602,-0.084 -7.317,-0.144C-6.735,-1.241 -6.402,-2.491 -6.402,-3.816C-6.402,-5.124 -6.725,-6.356 -7.294,-7.442C-3.253,-7.337 0,-4.022 0,0.039M0.373,0.039C0.373,-4.294 -3.152,-7.817 -7.488,-7.817L-7.503,-7.817C-8.874,-10.125 -11.39,-11.675 -14.263,-11.675C-17.135,-11.675 -19.656,-10.123 -21.024,-7.816C-25.297,-7.746 -28.752,-4.248 -28.752,0.039C-28.752,1.483 -28.362,2.832 -27.679,3.997C-28.274,5.103 -28.615,6.369 -28.615,7.712C-28.615,11.987 -25.182,15.475 -20.93,15.567C-19.553,17.855 -17.047,19.387 -14.19,19.387C-11.332,19.387 -8.83,17.857 -7.452,15.571C-3.134,15.552 0.373,12.034 0.373,7.712C0.373,6.32 0.01,5.013 -0.631,3.876C0.01,2.74 0.373,1.433 0.373,0.039" style="fill-rule:nonzero;"/>
            </g>
            <text x="8.985px" y="19.711px" style="font-family:'ArialMT', 'Arial', sans-serif;font-size:13.879px;fill:white;">s<tspan x="15.744px " y="19.711px ">c</tspan></text>
        </g>
    </g>
</svg>
